ffmpeg started on 2025-05-12 at 15:12:05
Report written to "D:\Convert\FFMetrics\reports\psnr_report-6.txt"
Log level: 32
Command line:
ffmpeg -hide_banner -nostdin -i "G:\\\xc0\xed\xe8\xec\xe5\\\xce\xed\xe3\xee\xe8\xed\xe3\xe8\\!_35_\xcb\xe5\xf2\xee_2024\\DreamCast\\\xc6\xe8\xe7\xed\xfc \xf1 \xec\xee\xe5\xe9 \xf1\xe2\xee\xe4\xed\xee\xe9 \xf1\xe5\xf1\xf2\xf0\xee\xe9\\[DC] Gimai Seikatsu - 05_Telegram_HEVC.mkv" -i "G:\\\xc0\xed\xe8\xec\xe5\\\xce\xed\xe3\xee\xe8\xed\xe3\xe8\\!_35_\xcb\xe5\xf2\xee_2024\\DreamCast\\\xc6\xe8\xe7\xed\xfc \xf1 \xec\xee\xe5\xe9 \xf1\xe2\xee\xe4\xed\xee\xe9 \xf1\xe5\xf1\xf2\xf0\xee\xe9\\[DC] Gimai Seikatsu - 05_Telegram.mp4" -lavfi "[0:v]settb=AVTB,setpts=PTS-STARTPTS,format=pix_fmts=yuv420p10,fps=24000/1001,scale=1920:1080:flags=bicubic[main];[1:v]settb=AVTB,setpts=PTS-STARTPTS,format=pix_fmts=yuv420p,fps=24000/1001,scale=1920:1080:flags=bicubic[ref];[main][ref]psnr=eof_action=endall:stats_file='D\\:/Convert/FFMetrics/logs/psnr_logfile-6.txt'" -f null -
Input #0, matroska,webm, from 'G:\Аниме\Онгоинги\!_35_Лето_2024\DreamCast\Жизнь с моей сводной сестрой\[DC] Gimai Seikatsu - 05_Telegram_HEVC.mkv':
  Metadata:
    COMPATIBLE_BRANDS: isomiso2avc1mp41
    MAJOR_BRAND     : isom
    MINOR_VERSION   : 512
    ENCODER         : Lavf61.7.100
  Duration: 00:23:56.72, start: -0.021000, bitrate: 960 kb/s
  Stream #0:0: Video: hevc (Main 10), yuv420p10le(tv, bt709, progressive), 1920x1080 [SAR 1:1 DAR 16:9], 23.98 fps, 23.98 tbr, 1k tbn (default)
      Metadata:
        HANDLER_NAME    : VideoHandler
        VENDOR_ID       : [0][0][0][0]
        ENCODER         : Lavc61.19.100 libx265
        BPS             : 763349
        DURATION        : 00:23:56.601708333
        NUMBER_OF_FRAMES: 34444
        NUMBER_OF_BYTES : 137078651
        _STATISTICS_WRITING_APP: mkvpropedit v66.0.0 ('Josie') 64-bit
        _STATISTICS_WRITING_DATE_UTC: 2025-05-07 13:03:47
        _STATISTICS_TAGS: BPS DURATION NUMBER_OF_FRAMES NUMBER_OF_BYTES
  Stream #0:1: Audio: aac (LC), 48000 Hz, stereo, fltp (default)
      Metadata:
        HANDLER_NAME    : SoundHandler
        VENDOR_ID       : [0][0][0][0]
        ENCODER         : Lavc61.19.100 aac
        BPS             : 193231
        DURATION        : 00:23:56.714000000
        NUMBER_OF_FRAMES: 67347
        NUMBER_OF_BYTES : 34702287
        _STATISTICS_WRITING_APP: mkvpropedit v66.0.0 ('Josie') 64-bit
        _STATISTICS_WRITING_DATE_UTC: 2025-05-07 13:03:47
        _STATISTICS_TAGS: BPS DURATION NUMBER_OF_FRAMES NUMBER_OF_BYTES
Input #1, mov,mp4,m4a,3gp,3g2,mj2, from 'G:\Аниме\Онгоинги\!_35_Лето_2024\DreamCast\Жизнь с моей сводной сестрой\[DC] Gimai Seikatsu - 05_Telegram.mp4':
  Metadata:
    major_brand     : isom
    minor_version   : 512
    compatible_brands: isomiso2avc1mp41
    encoder         : Lavf61.1.100
  Duration: 00:23:56.67, start: 0.000000, bitrate: 3592 kb/s
  Stream #1:0[0x1](und): Video: h264 (High) (avc1 / 0x31637661), yuv420p(tv, bt709, progressive), 1920x1080 [SAR 1:1 DAR 16:9], 3444 kb/s, 23.98 fps, 23.98 tbr, 24k tbn (default)
      Metadata:
        handler_name    : VideoHandler
        vendor_id       : [0][0][0][0]
        encoder         : Lavc61.3.100 h264_qsv
  Stream #1:1[0x2](und): Audio: aac (HE-AACv2) (mp4a / 0x6134706D), 48000 Hz, stereo, fltp, 144 kb/s (default)
      Metadata:
        handler_name    : SoundHandler
        vendor_id       : [0][0][0][0]
Stream mapping:
  Stream #0:0 (hevc) -> settb:default
  Stream #1:0 (h264) -> settb:default
  psnr:default -> Stream #0:0 (wrapped_avframe)
  Stream #0:1 -> #0:1 (aac (native) -> pcm_s16le (native))
Output #0, null, to 'pipe:':
  Metadata:
    COMPATIBLE_BRANDS: isomiso2avc1mp41
    MAJOR_BRAND     : isom
    MINOR_VERSION   : 512
    encoder         : Lavf61.7.100
  Stream #0:0: Video: wrapped_avframe, yuv420p10le(tv, bt709, progressive), 1920x1080 [SAR 1:1 DAR 16:9], q=2-31, 200 kb/s, 23.98 fps, 23.98 tbn
      Metadata:
        encoder         : Lavc61.19.100 wrapped_avframe
  Stream #0:1: Audio: pcm_s16le, 48000 Hz, stereo, s16, 1536 kb/s (default)
      Metadata:
        HANDLER_NAME    : SoundHandler
        VENDOR_ID       : [0][0][0][0]
        _STATISTICS_TAGS: BPS DURATION NUMBER_OF_FRAMES NUMBER_OF_BYTES
        BPS             : 193231
        DURATION        : 00:23:56.714000000
        NUMBER_OF_FRAMES: 67347
        NUMBER_OF_BYTES : 34702287
        _STATISTICS_WRITING_APP: mkvpropedit v66.0.0 ('Josie') 64-bit
        _STATISTICS_WRITING_DATE_UTC: 2025-05-07 13:03:47
        encoder         : Lavc61.19.100 pcm_s16le
frame=  166 fps=0.0 q=-0.0 size=N/A time=00:00:06.92 bitrate=N/A speed=13.4x    frame=  437 fps=420 q=-0.0 size=N/A time=00:00:18.22 bitrate=N/A speed=17.5x    frame=  684 fps=442 q=-0.0 size=N/A time=00:00:28.52 bitrate=N/A speed=18.4x    frame=  956 fps=462 q=-0.0 size=N/A time=00:00:39.87 bitrate=N/A speed=19.3x    frame= 1222 fps=474 q=-0.0 size=N/A time=00:00:50.96 bitrate=N/A speed=19.8x    frame= 1470 fps=474 q=-0.0 size=N/A time=00:01:01.31 bitrate=N/A speed=19.8x    frame= 1673 fps=464 q=-0.0 size=N/A time=00:01:09.77 bitrate=N/A speed=19.4x    frame= 1907 fps=462 q=-0.0 size=N/A time=00:01:19.53 bitrate=N/A speed=19.3x    frame= 2125 fps=457 q=-0.0 size=N/A time=00:01:28.63 bitrate=N/A speed=19.1x    frame= 2388 fps=462 q=-0.0 size=N/A time=00:01:39.59 bitrate=N/A speed=19.3x    frame= 2621 fps=460 q=-0.0 size=N/A time=00:01:49.31 bitrate=N/A speed=19.2x    frame= 2749 fps=443 q=-0.0 size=N/A time=00:01:54.65 bitrate=N/A speed=18.5x    frame= 2946 fps=438 q=-0.0 size=N/A time=00:02:02.87 bitrate=N/A speed=18.3x    frame= 3198 fps=442 q=-0.0 size=N/A time=00:02:13.38 bitrate=N/A speed=18.4x    frame= 3467 fps=447 q=-0.0 size=N/A time=00:02:24.60 bitrate=N/A speed=18.6x    frame= 3707 fps=449 q=-0.0 size=N/A time=00:02:34.61 bitrate=N/A speed=18.7x    frame= 3975 fps=452 q=-0.0 size=N/A time=00:02:45.79 bitrate=N/A speed=18.9x    frame= 4241 fps=456 q=-0.0 size=N/A time=00:02:56.88 bitrate=N/A speed=  19x    frame= 4435 fps=452 q=-0.0 size=N/A time=00:03:04.97 bitrate=N/A speed=18.8x    frame= 4634 fps=448 q=-0.0 size=N/A time=00:03:13.27 bitrate=N/A speed=18.7x    frame= 4832 fps=446 q=-0.0 size=N/A time=00:03:21.53 bitrate=N/A speed=18.6x    frame= 5110 fps=449 q=-0.0 size=N/A time=00:03:33.12 bitrate=N/A speed=18.7x    frame= 5385 fps=453 q=-0.0 size=N/A time=00:03:44.59 bitrate=N/A speed=18.9x    frame= 5642 fps=455 q=-0.0 size=N/A time=00:03:55.31 bitrate=N/A speed=  19x    frame= 5908 fps=458 q=-0.0 size=N/A time=00:04:06.41 bitrate=N/A speed=19.1x    frame= 6178 fps=460 q=-0.0 size=N/A time=00:04:17.67 bitrate=N/A speed=19.2x    frame= 6430 fps=462 q=-0.0 size=N/A time=00:04:28.18 bitrate=N/A speed=19.2x    frame= 6687 fps=463 q=-0.0 size=N/A time=00:04:38.90 bitrate=N/A speed=19.3x    frame= 6955 fps=464 q=-0.0 size=N/A time=00:04:50.08 bitrate=N/A speed=19.4x    frame= 7207 fps=465 q=-0.0 size=N/A time=00:05:00.59 bitrate=N/A speed=19.4x    frame= 7469 fps=467 q=-0.0 size=N/A time=00:05:11.51 bitrate=N/A speed=19.5x    frame= 7741 fps=468 q=-0.0 size=N/A time=00:05:22.86 bitrate=N/A speed=19.5x    frame= 7993 fps=469 q=-0.0 size=N/A time=00:05:33.37 bitrate=N/A speed=19.6x    frame= 8263 fps=471 q=-0.0 size=N/A time=00:05:44.63 bitrate=N/A speed=19.6x    frame= 8535 fps=472 q=-0.0 size=N/A time=00:05:55.98 bitrate=N/A speed=19.7x    frame= 8782 fps=472 q=-0.0 size=N/A time=00:06:06.28 bitrate=N/A speed=19.7x    frame= 9010 fps=471 q=-0.0 size=N/A time=00:06:15.79 bitrate=N/A speed=19.7x    frame= 9258 fps=472 q=-0.0 size=N/A time=00:06:26.13 bitrate=N/A speed=19.7x    frame= 9526 fps=473 q=-0.0 size=N/A time=00:06:37.31 bitrate=N/A speed=19.7x    frame= 9769 fps=473 q=-0.0 size=N/A time=00:06:47.44 bitrate=N/A speed=19.7x    frame=10026 fps=474 q=-0.0 size=N/A time=00:06:58.16 bitrate=N/A speed=19.8x    frame=10276 fps=474 q=-0.0 size=N/A time=00:07:08.59 bitrate=N/A speed=19.8x    frame=10503 fps=473 q=-0.0 size=N/A time=00:07:18.06 bitrate=N/A speed=19.7x    frame=10728 fps=472 q=-0.0 size=N/A time=00:07:27.44 bitrate=N/A speed=19.7x    frame=10991 fps=473 q=-0.0 size=N/A time=00:07:38.41 bitrate=N/A speed=19.7x    frame=11248 fps=473 q=-0.0 size=N/A time=00:07:49.13 bitrate=N/A speed=19.7x    frame=11508 fps=474 q=-0.0 size=N/A time=00:07:59.97 bitrate=N/A speed=19.8x    frame=11737 fps=474 q=-0.0 size=N/A time=00:08:09.53 bitrate=N/A speed=19.8x    frame=11943 fps=472 q=-0.0 size=N/A time=00:08:18.12 bitrate=N/A speed=19.7x    frame=12124 fps=470 q=-0.0 size=N/A time=00:08:25.67 bitrate=N/A speed=19.6x    frame=12308 fps=467 q=-0.0 size=N/A time=00:08:33.34 bitrate=N/A speed=19.5x    frame=12535 fps=467 q=-0.0 size=N/A time=00:08:42.81 bitrate=N/A speed=19.5x    frame=12782 fps=467 q=-0.0 size=N/A time=00:08:53.11 bitrate=N/A speed=19.5x    frame=13041 fps=468 q=-0.0 size=N/A time=00:09:03.91 bitrate=N/A speed=19.5x    frame=13306 fps=469 q=-0.0 size=N/A time=00:09:14.97 bitrate=N/A speed=19.5x    frame=13547 fps=468 q=-0.0 size=N/A time=00:09:25.02 bitrate=N/A speed=19.5x    frame=13815 fps=469 q=-0.0 size=N/A time=00:09:36.20 bitrate=N/A speed=19.6x    frame=14080 fps=470 q=-0.0 size=N/A time=00:09:47.25 bitrate=N/A speed=19.6x    frame=14332 fps=470 q=-0.0 size=N/A time=00:09:57.76 bitrate=N/A speed=19.6x    frame=14573 fps=470 q=-0.0 size=N/A time=00:10:07.81 bitrate=N/A speed=19.6x    frame=14839 fps=471 q=-0.0 size=N/A time=00:10:18.90 bitrate=N/A speed=19.6x    frame=15093 fps=471 q=-0.0 size=N/A time=00:10:29.50 bitrate=N/A speed=19.6x    frame=15353 fps=472 q=-0.0 size=N/A time=00:10:40.34 bitrate=N/A speed=19.7x    frame=15617 fps=472 q=-0.0 size=N/A time=00:10:51.35 bitrate=N/A speed=19.7x    frame=15865 fps=473 q=-0.0 size=N/A time=00:11:01.70 bitrate=N/A speed=19.7x    frame=16121 fps=473 q=-0.0 size=N/A time=00:11:12.38 bitrate=N/A speed=19.7x    frame=16358 fps=473 q=-0.0 size=N/A time=00:11:22.26 bitrate=N/A speed=19.7x    frame=16597 fps=473 q=-0.0 size=N/A time=00:11:32.23 bitrate=N/A speed=19.7x    frame=16846 fps=473 q=-0.0 size=N/A time=00:11:42.61 bitrate=N/A speed=19.7x    frame=17098 fps=473 q=-0.0 size=N/A time=00:11:53.12 bitrate=N/A speed=19.7x    frame=17351 fps=473 q=-0.0 size=N/A time=00:12:03.68 bitrate=N/A speed=19.7x    frame=17603 fps=473 q=-0.0 size=N/A time=00:12:14.19 bitrate=N/A speed=19.7x    frame=17879 fps=474 q=-0.0 size=N/A time=00:12:25.70 bitrate=N/A speed=19.8x    frame=18142 fps=475 q=-0.0 size=N/A time=00:12:36.67 bitrate=N/A speed=19.8x    frame=18395 fps=475 q=-0.0 size=N/A time=00:12:47.22 bitrate=N/A speed=19.8x    frame=18647 fps=475 q=-0.0 size=N/A time=00:12:57.73 bitrate=N/A speed=19.8x    frame=18906 fps=475 q=-0.0 size=N/A time=00:13:08.53 bitrate=N/A speed=19.8x    frame=19149 fps=475 q=-0.0 size=N/A time=00:13:18.67 bitrate=N/A speed=19.8x    frame=19415 fps=476 q=-0.0 size=N/A time=00:13:29.76 bitrate=N/A speed=19.8x    frame=19663 fps=476 q=-0.0 size=N/A time=00:13:40.11 bitrate=N/A speed=19.8x    frame=19907 fps=476 q=-0.0 size=N/A time=00:13:50.28 bitrate=N/A speed=19.8x    frame=20135 fps=475 q=-0.0 size=N/A time=00:13:59.79 bitrate=N/A speed=19.8x    frame=20366 fps=475 q=-0.0 size=N/A time=00:14:09.43 bitrate=N/A speed=19.8x    frame=20600 fps=475 q=-0.0 size=N/A time=00:14:19.19 bitrate=N/A speed=19.8x    frame=20811 fps=474 q=-0.0 size=N/A time=00:14:27.99 bitrate=N/A speed=19.8x    frame=21068 fps=474 q=-0.0 size=N/A time=00:14:38.71 bitrate=N/A speed=19.8x    frame=21319 fps=474 q=-0.0 size=N/A time=00:14:49.17 bitrate=N/A speed=19.8x    frame=21555 fps=474 q=-0.0 size=N/A time=00:14:59.02 bitrate=N/A speed=19.8x    frame=21754 fps=473 q=-0.0 size=N/A time=00:15:07.32 bitrate=N/A speed=19.7x    frame=21934 fps=472 q=-0.0 size=N/A time=00:15:14.83 bitrate=N/A speed=19.7x    frame=22119 fps=471 q=-0.0 size=N/A time=00:15:22.54 bitrate=N/A speed=19.6x    frame=22314 fps=470 q=-0.0 size=N/A time=00:15:30.67 bitrate=N/A speed=19.6x    frame=22561 fps=470 q=-0.0 size=N/A time=00:15:40.98 bitrate=N/A speed=19.6x    frame=22806 fps=470 q=-0.0 size=N/A time=00:15:51.20 bitrate=N/A speed=19.6x    frame=23063 fps=470 q=-0.0 size=N/A time=00:16:01.91 bitrate=N/A speed=19.6x    frame=23317 fps=470 q=-0.0 size=N/A time=00:16:12.51 bitrate=N/A speed=19.6x    frame=23587 fps=471 q=-0.0 size=N/A time=00:16:23.77 bitrate=N/A speed=19.6x    frame=23843 fps=471 q=-0.0 size=N/A time=00:16:34.45 bitrate=N/A speed=19.6x    frame=24106 fps=472 q=-0.0 size=N/A time=00:16:45.42 bitrate=N/A speed=19.7x    frame=24375 fps=472 q=-0.0 size=N/A time=00:16:56.64 bitrate=N/A speed=19.7x    frame=24647 fps=472 q=-0.0 size=N/A time=00:17:07.98 bitrate=N/A speed=19.7x    frame=24906 fps=473 q=-0.0 size=N/A time=00:17:18.78 bitrate=N/A speed=19.7x    frame=25157 fps=473 q=-0.0 size=N/A time=00:17:29.25 bitrate=N/A speed=19.7x    frame=25408 fps=473 q=-0.0 size=N/A time=00:17:39.72 bitrate=N/A speed=19.7x    frame=25663 fps=473 q=-0.0 size=N/A time=00:17:50.36 bitrate=N/A speed=19.7x    frame=25920 fps=474 q=-0.0 size=N/A time=00:18:01.08 bitrate=N/A speed=19.7x    frame=26179 fps=474 q=-0.0 size=N/A time=00:18:11.88 bitrate=N/A speed=19.8x    frame=26436 fps=474 q=-0.0 size=N/A time=00:18:22.60 bitrate=N/A speed=19.8x    frame=26692 fps=474 q=-0.0 size=N/A time=00:18:33.27 bitrate=N/A speed=19.8x    frame=26954 fps=475 q=-0.0 size=N/A time=00:18:44.20 bitrate=N/A speed=19.8x    frame=27216 fps=475 q=-0.0 size=N/A time=00:18:55.13 bitrate=N/A speed=19.8x    frame=27470 fps=475 q=-0.0 size=N/A time=00:19:05.76 bitrate=N/A speed=19.8x    frame=27723 fps=475 q=-0.0 size=N/A time=00:19:16.28 bitrate=N/A speed=19.8x    frame=28000 fps=476 q=-0.0 size=N/A time=00:19:27.83 bitrate=N/A speed=19.8x    frame=28259 fps=476 q=-0.0 size=N/A time=00:19:38.63 bitrate=N/A speed=19.9x    frame=28532 fps=476 q=-0.0 size=N/A time=00:19:50.02 bitrate=N/A speed=19.9x    frame=28791 fps=477 q=-0.0 size=N/A time=00:20:00.82 bitrate=N/A speed=19.9x    frame=29050 fps=477 q=-0.0 size=N/A time=00:20:11.62 bitrate=N/A speed=19.9x    frame=29299 fps=477 q=-0.0 size=N/A time=00:20:22.01 bitrate=N/A speed=19.9x    frame=29554 fps=477 q=-0.0 size=N/A time=00:20:32.64 bitrate=N/A speed=19.9x    frame=29798 fps=477 q=-0.0 size=N/A time=00:20:42.82 bitrate=N/A speed=19.9x    frame=30055 fps=477 q=-0.0 size=N/A time=00:20:53.54 bitrate=N/A speed=19.9x    frame=30305 fps=477 q=-0.0 size=N/A time=00:21:03.97 bitrate=N/A speed=19.9x    frame=30573 fps=478 q=-0.0 size=N/A time=00:21:15.14 bitrate=N/A speed=19.9x    frame=30841 fps=478 q=-0.0 size=N/A time=00:21:26.32 bitrate=N/A speed=19.9x    frame=31114 fps=478 q=-0.0 size=N/A time=00:21:37.71 bitrate=N/A speed=19.9x    frame=31370 fps=478 q=-0.0 size=N/A time=00:21:48.39 bitrate=N/A speed=  20x    frame=31639 fps=479 q=-0.0 size=N/A time=00:21:59.60 bitrate=N/A speed=  20x    frame=31899 fps=479 q=-0.0 size=N/A time=00:22:10.45 bitrate=N/A speed=  20x    frame=32125 fps=479 q=-0.0 size=N/A time=00:22:19.88 bitrate=N/A speed=  20x    frame=32341 fps=478 q=-0.0 size=N/A time=00:22:28.88 bitrate=N/A speed=19.9x    frame=32582 fps=478 q=-0.0 size=N/A time=00:22:38.94 bitrate=N/A speed=19.9x    frame=32782 fps=477 q=-0.0 size=N/A time=00:22:47.28 bitrate=N/A speed=19.9x    frame=32983 fps=477 q=-0.0 size=N/A time=00:22:55.66 bitrate=N/A speed=19.9x    frame=33187 fps=476 q=-0.0 size=N/A time=00:23:04.17 bitrate=N/A speed=19.9x    frame=33376 fps=475 q=-0.0 size=N/A time=00:23:12.05 bitrate=N/A speed=19.8x    frame=33582 fps=475 q=-0.0 size=N/A time=00:23:20.64 bitrate=N/A speed=19.8x    frame=33790 fps=474 q=-0.0 size=N/A time=00:23:29.32 bitrate=N/A speed=19.8x    frame=33909 fps=473 q=-0.0 size=N/A time=00:23:34.28 bitrate=N/A speed=19.7x    frame=34123 fps=472 q=-0.0 size=N/A time=00:23:43.21 bitrate=N/A speed=19.7x    frame=34319 fps=471 q=-0.0 size=N/A time=00:23:51.38 bitrate=N/A speed=19.7x    [Parsed_psnr_10 @ 000002041369d640] PSNR y:47.760932 u:50.768390 v:50.565725 average:48.531468 min:36.189913 max:inf
[out#0/null @ 000002041328d2c0] video:14800KiB audio:269388KiB subtitle:0KiB other streams:0KiB global headers:0KiB muxing overhead: unknown
frame=34444 fps=471 q=-0.0 Lsize=N/A time=00:23:56.60 bitrate=N/A speed=19.7x    
